<?xml version="1.0" encoding="utf-8"?>
<!-- Generator: Adobe Illustrator 23.0.1, SVG Export Plug-In . SVG Version: 6.00 Build 0)  -->
<svg version="1.1" xmlns="http://www.w3.org/2000/svg" xmlns:xlink="http://www.w3.org/1999/xlink" x="0px" y="0px"
	 viewBox="0 0 500 500" style="enable-background:new 0 0 500 500;" xml:space="preserve">
<style type="text/css">
	.st0{fill:none;}
	.st1{fill:url(#SVGID_1_);}
</style>
<g id="Layer_1">
</g>
<g id="Layer_2">
	<path class="st0" d="M36.05,228.65C35.36,235.67,35,242.79,35,250c0,73.3,36.69,138.02,92.7,176.83L328,79.9L36.05,228.65z"/>
	<path class="st0" d="M463.95,271.35c0.69-7.02,1.05-14.14,1.05-21.35c0-73.3-36.69-138.02-92.7-176.83L172,420.1L463.95,271.35z"/>
	<path class="st0" d="M250,35C154,35,72.71,97.92,45.09,184.77L317.67,45.88C296.39,38.83,273.64,35,250,35z"/>
	<path class="st0" d="M250,465c96,0,177.29-62.92,204.91-149.77L182.33,454.12C203.61,461.17,226.36,465,250,465z"/>
</g>
<g id="Layer_3">
	<path class="st0" d="M285,250c0-6.38-1.71-12.35-4.69-17.5L250,285c0,0,0,0,0,0C269.33,285,285,269.33,285,250z"/>
	<path class="st0" d="M250,215c-19.33,0-35,15.67-35,35c0,6.38,1.71,12.35,4.69,17.5L250,215C250,215,250,215,250,215z"/>
	<g>
		<linearGradient id="SVGID_1_" gradientUnits="userSpaceOnUse" x1="375.0209" y1="466.5425" x2="124.9791" y2="33.4575">
			<stop  offset="0" style="stop-color:#1C5B7D"/>
			<stop  offset="1" style="stop-color:#59ACD9"/>
		</linearGradient>
		<path class="st1" d="M394.54,46c-11.24-7.98-23.17-15.04-35.67-21.1C325.95,8.95,289.02,0,250,0C111.93,0,0,111.93,0,250
			c0,84.22,41.64,158.71,105.46,204c11.24,7.98,23.17,15.04,35.67,21.1C174.05,491.05,210.98,500,250,500
			c138.07,0,250-111.93,250-250C500,165.78,458.36,91.29,394.54,46z M250,35c23.64,0,46.39,3.83,67.67,10.88L45.09,184.77
			C72.71,97.92,154,35,250,35z M127.7,426.83C71.69,388.02,35,323.3,35,250c0-7.21,0.36-14.33,1.05-21.35L328,79.9l-59.27,102.66
			C262.77,180.9,256.49,180,250,180c-38.66,0-70,31.34-70,70c0,19.56,8.03,37.23,20.96,49.94L127.7,426.83z M285,250
			c0,19.33-15.67,35-35,35c0,0,0,0,0,0c-12.95,0-24.26-7.04-30.31-17.5c-2.98-5.15-4.69-11.12-4.69-17.5c0-19.33,15.67-35,35-35
			c0,0,0,0,0,0c12.95,0,24.26,7.04,30.31,17.5C283.29,237.65,285,243.62,285,250z M231.27,317.44c5.96,1.65,12.24,2.56,18.73,2.56
			c38.66,0,70-31.34,70-70c0-19.56-8.03-37.23-20.96-49.94l73.26-126.9C428.31,111.98,465,176.7,465,250
			c0,7.21-0.36,14.33-1.05,21.35L172,420.1L231.27,317.44z M250,465c-23.64,0-46.39-3.83-67.67-10.88l272.58-138.89
			C427.29,402.08,346,465,250,465z"/>
	</g>
</g>
</svg>
