<svg xmlns="http://www.w3.org/2000/svg" xmlns:xlink="http://www.w3.org/1999/xlink" viewBox="0 0 500 500"><defs><style>.cls-1{fill:none;}.cls-2{fill:url(#linear-gradient);}</style><linearGradient id="linear-gradient" x1="375.02" y1="466.54" x2="124.98" y2="33.46" gradientUnits="userSpaceOnUse"><stop offset="0" stop-color="#026dca"/><stop offset="1" stop-color="#5cb3ff"/></linearGradient></defs><title>logo - basic75</title><g id="Layer_2" data-name="Layer 2"><path class="cls-1" d="M36.05,228.65Q35,239.18,35,250a214.74,214.74,0,0,0,92.7,176.83L328,79.9Z"/><path class="cls-1" d="M464,271.35Q465,260.82,465,250A214.74,214.74,0,0,0,372.3,73.17L172,420.1Z"/><path class="cls-1" d="M250,35C154,35,72.71,97.92,45.09,184.77L317.67,45.88A214.81,214.81,0,0,0,250,35Z"/><path class="cls-1" d="M250,465c96,0,177.29-62.92,204.91-149.77L182.33,454.12A214.81,214.81,0,0,0,250,465Z"/></g><g id="Layer_3" data-name="Layer 3"><path class="cls-1" d="M285,250a34.82,34.82,0,0,0-4.69-17.5L250,285h0A35,35,0,0,0,285,250Z"/><path class="cls-1" d="M250,215a35,35,0,0,0-30.31,52.5L250,215Z"/><path class="cls-2" d="M394.54,46A249,249,0,0,0,250,0C111.93,0,0,111.93,0,250A249.85,249.85,0,0,0,250,500c138.07,0,250-111.93,250-250A249.66,249.66,0,0,0,394.54,46ZM250,35a214.81,214.81,0,0,1,67.67,10.88L45.09,184.77C72.71,97.92,154,35,250,35ZM127.7,426.83A214.74,214.74,0,0,1,35,250q0-10.81,1-21.35L328,79.9,268.73,182.56A70,70,0,0,0,201,299.94ZM285,250a35,35,0,0,1-35,35h0a35,35,0,0,1,0-70h0a35,35,0,0,1,35,35Zm-53.73,67.44A70,70,0,0,0,299,200.06L372.3,73.17A214.74,214.74,0,0,1,465,250q0,10.81-1.05,21.35L172,420.1ZM250,465a214.81,214.81,0,0,1-67.67-10.88L454.91,315.23C427.29,402.08,346,465,250,465Z"/></g></svg>